<svg xmlns="http://www.w3.org/2000/svg" viewBox="0 0 433.24916 177.2428"><defs><style>.cls-1{fill:#003b71;}.cls-2{fill:#007934;}</style></defs><title>NAPC</title><g id="Layer_2" data-name="Layer 2"><g id="Layer_1-2" data-name="Layer 1"><path class="cls-1" d="M79.67969,64.93848c.54891,1.98268,1.09781,2.2866,2.01266,2.2866.91381,0,1.27975-.15093,1.27975-1.37072L80.7775,6.7068c.183-4.87918,10.974-5.793,15.36423-5.793,4.38919,0,15.18126.91381,15.18126,5.793V95.5801c0,6.85979-1.82969,10.21319-22.132,10.21319-14.63235,0-19.75341-2.13361-22.67988-10.21319L45.65986,38.26223c-.91484-2.2866-1.46375-2.8965-2.37756-2.8965-.73188,0-1.28078.6099-1.28078,3.20041l1.82969,61.43416c-.183,4.87917-10.975,5.793-15.36423,5.793-4.39022,0-14.81532-.91382-14.81532-5.793V11.28C13.65166,3.96329,17.31.91381,36.14858.91381c20.85122,0,23.59473,3.20041,26.15526,11.586Z"/><path class="cls-1" d="M200.035,100.15329l-3.65835-14.63338c-.91484-3.04948-2.01162-4.11629-5.304-4.11629H168.2098c-3.65835,0-4.57319,1.06681-5.487,4.11629l-3.65835,14.9373c-1.46375,4.72618-8.04753,5.33608-14.44938,5.33608-5.487,0-18.10773-1.06681-18.10773-8.07958,0-1.6767.91485-4.72619,2.01163-8.07958,5.67-18.74967,18.47366-59.60448,25.24145-80.03084C155.58907,3.65731,163.0877,0,181.01246,0c18.65663,0,25.78932,3.04742,28.35089,10.67009,6.76675,19.96946,20.48529,66.31127,23.95963,78.35414a26.50186,26.50186,0,0,1,1.64672,8.38556c0,6.40288-12.80369,8.3835-19.57044,8.3835C208.63147,105.79329,201.68072,105.18339,200.035,100.15329ZM177.35515,25.45646c-2.56157,8.38557-8.41451,31.09853-8.41451,33.23213,0,1.82969.91485,2.13567,3.65835,2.13567h15.18125c2.92647,0,3.65835-.306,3.65835-2.13567,0-1.98061-5.12106-24.99956-7.68263-33.23213-.73084-1.67669-1.27975-1.98061-3.10944-1.98061C178.81786,23.47585,177.903,23.77977,177.35515,25.45646Z"/><path class="cls-1" d="M292.22452,72.25724H290.2129c-6.58482,0-7.13269,1.6767-7.13269,4.87711V99.23948c0,5.487-8.59644,6.55381-16.462,6.55381-8.04754,0-16.461-.91382-16.461-6.24989V13.10968c0-7.31876,5.304-11.586,16.644-11.586h26.33823c27.0701,0,45.54377,7.62267,45.54377,34.14594C338.68314,66.31127,316.00222,72.25724,292.22452,72.25724ZM283.08021,46.3418c0,6.40289,1.27975,7.01278,6.94972,7.01278,10.79207,0,17.00991-3.81237,17.00991-17.075,0-11.73689-5.85294-15.54926-15.36319-15.54926-7.31669,0-8.59644.306-8.59644,7.01278Z"/><path class="cls-1" d="M409.28952,83.08032a84.58674,84.58674,0,0,0,14.99726-1.37278c5.671-.76289,8.96238,2.7435,8.96238,11.28,0,5.33608-1.27975,8.84247-4.20622,10.06226-4.9381,2.2866-15.36423,3.65938-25.9723,3.65938-36.58139,0-51.94561-18.75173-51.94561-52.59376C351.125,20.88327,366.48925,0,404.35039,0c10.6091,0,18.47367,1.21773,22.498,3.04742,3.65731,1.67669,5.487,4.11628,5.487,11.28205,0,7.92659-3.84131,10.82308-7.86559,10.21318a105.8315,105.8315,0,0,0-15.18023-1.21979c-16.645,0-21.76607,5.487-21.76607,30.94553C387.52345,77.74424,392.46154,83.08032,409.28952,83.08032Z"/><rect class="cls-2" y="132.61118" width="432.89236" height="44.63162"/></g></g></svg>